<?xml version="1.0" encoding="utf-8"?>
<!-- Generator: Adobe Illustrator 21.0.2, SVG Export Plug-In . SVG Version: 6.00 Build 0)  -->
<svg version="1.1"
	 id="svg2985" inkscape:version="0.48.4 r9939" sodipodi:docname="Forbes-logo.svg" xmlns:cc="http://creativecommons.org/ns#" xmlns:dc="http://purl.org/dc/elements/1.1/" xmlns:inkscape="http://www.inkscape.org/namespaces/inkscape" xmlns:rdf="http://www.w3.org/1999/02/22-rdf-syntax-ns#" xmlns:sodipodi="http://sodipodi.sourceforge.net/DTD/sodipodi-0.dtd" xmlns:svg="http://www.w3.org/2000/svg"
	 xmlns="http://www.w3.org/2000/svg" xmlns:xlink="http://www.w3.org/1999/xlink" x="0px" y="0px" viewBox="901.1 396 230 80"
	 style="enable-background:new 901.1 396 230 80;" xml:space="preserve">
<style type="text/css">
	.st0{fill:#6E747E;}
</style>
<sodipodi:namedview  bordercolor="#666666" borderopacity="1" fit-margin-bottom="0" fit-margin-left="0" fit-margin-right="0" fit-margin-top="0" gridtolerance="10" guidetolerance="10" id="namedview2987" inkscape:current-layer="svg2985" inkscape:cx="685.02581" inkscape:cy="170.72431" inkscape:pageopacity="0" inkscape:pageshadow="2" inkscape:window-height="877" inkscape:window-maximized="1" inkscape:window-width="1440" inkscape:window-x="-8" inkscape:window-y="-8" inkscape:zoom="0.88622754" objecttolerance="10" pagecolor="#ffffff" showgrid="false">
	</sodipodi:namedview>
<path id="path2995" inkscape:connector-curvature="0" class="st0" d="M963.3,463.3c-3.7-0.5-6.9-2.1-9.3-4.5c-2-2-3.4-4.2-4.3-7.3
	c-1.5-4.8-1.5-10.9,0-15.5c1.5-4.5,4.8-8.4,8.9-10.5c5.6-2.8,13.5-2.6,18.8,0.4c4.7,2.8,7.5,7.7,8.3,14.4c0.2,2,0.1,6.4-0.3,8.2
	c-1.6,7.3-6.1,12.4-12.7,14.3c-0.7,0.2-1.8,0.4-2.5,0.5C968.8,463.5,964.6,463.5,963.3,463.3L963.3,463.3z M968.8,460.4
	c1.1-0.3,2.4-1.6,3.1-2.9c1.5-2.8,2.1-6.9,2.1-13.4c0-8.2-1.3-13.4-4-16.1c-1.1-1.1-1.9-1.5-3.4-1.5c-3.2,0-5.3,3.4-6.1,10
	c-0.4,3-0.4,10.3,0,13C961.7,457.7,964.7,461.6,968.8,460.4L968.8,460.4z M1028.2,463.3c-1.5-0.2-6.1-0.9-7.7-1.3l-1.1-0.3l0.1-5.9
	c0.2-14.2,0.2-22,0.1-29.5c-0.1-7.4-0.2-8.2-0.5-9.3c-0.4-1.4-0.9-2.4-1.5-2.8c-0.2-0.2-0.9-0.4-1.5-0.5c-1.9-0.4-1.8-0.4-1.8-1.2
	c0-0.5,0-0.8,0.2-0.9c0.2-0.1,15.6-3.1,16.1-3.1c0.1,0,0.2,2,0.1,8.8c-0.1,4.8-0.1,8.8,0,8.8c0,0,0.6-0.2,1.3-0.5
	c1.9-0.9,3.7-1.3,6.3-1.4c1.7-0.1,2.5,0,3.4,0.2c5.8,1.2,10.1,6,11.6,12.9c0.4,1.8,0.5,6.3,0.3,8.5c-0.2,1.9-0.9,4.5-1.5,6.1
	c-2.5,6.3-7.8,10.4-14.9,11.5C1035.5,463.5,1030.4,463.5,1028.2,463.3L1028.2,463.3z M1034.2,460.3c1.1-0.2,1.9-0.6,2.9-1.5
	c2.3-2.1,4-6.3,4.7-11.6c0.3-2.1,0.2-7-0.1-8.8c-0.8-4.8-2.6-8-5.2-9.3c-1.1-0.5-1.2-0.6-2.5-0.6c-0.9,0-1.7,0.1-2.4,0.3l-1,0.3
	l-0.1,5.5c-0.1,7.1,0.1,24.8,0.3,25.3c0.1,0.3,0.3,0.4,0.9,0.4C1033.2,460.5,1033.4,460.5,1034.2,460.3L1034.2,460.3z M1071.6,463.2
	c-7.5-1.4-12.8-6.7-14.6-14.5c-0.2-1-0.3-2.1-0.4-4.3c-0.1-3.4,0.2-5.6,1.1-8.2c1.7-5.1,4.8-8.7,9.2-10.9c4.7-2.3,11.1-2.4,15.2-0.4
	c4.7,2.3,7.4,7,8.1,13.8c0.1,0.9,0.1,2,0.1,2.4l0,0.8l-11.2,0l-11.2,0l0,1.3c0.1,3.1,0.8,5.8,2,8.1c0.6,1.1,1,1.7,2.1,2.7
	c2.4,2.4,4.8,3.4,8.6,3.4c2.7,0,4.7-0.5,6.8-1.9c0.6-0.4,1.2-0.7,1.3-0.7c0.3,0,1,0.9,1,1.3c0,0.7-2.2,2.8-4.3,4.2
	c-1.7,1.2-4.5,2.2-6.9,2.6C1077,463.5,1073.2,463.5,1071.6,463.2L1071.6,463.2z M1076.3,438.6l2.6-0.1l-0.1-1.9
	c-0.3-6.6-1.9-10.2-4.6-10.2c-2.8,0-5.1,3.7-6,9.7c-0.1,0.7-0.2,1.6-0.2,2l0,0.6l2.8,0C1072.4,438.7,1074.9,438.7,1076.3,438.6
	L1076.3,438.6z M1101.8,463.4c-2.7-0.3-7-1.2-8.4-1.8l-0.7-0.3l-0.1-3.4c-0.1-1.9-0.1-4.4-0.1-5.6l0-2.2l0.4-0.2
	c0.2-0.1,0.7-0.2,1-0.2l0.6,0l0.5,1.3c2,5,4.4,7.7,7.5,8.5c1.2,0.3,3.4,0.3,4.3,0c2.5-0.9,3.8-2.7,3.8-5.3c0-3-1.6-4.5-7.9-6.9
	c-3.9-1.5-5.2-2.3-6.9-4c-1.7-1.8-2.6-3.8-2.7-6.6c-0.2-3.4,0.9-6.3,3.2-8.7c2.4-2.5,5.5-3.8,9.7-4.2c3.7-0.3,9.4,0.4,12.4,1.7
	l0.5,0.2l0.1,3.1c0.1,1.7,0.1,4,0.1,5l0,2l-0.7,0.3c-1.2,0.4-1.2,0.4-1.9-1.3c-1.8-4.8-3.9-7-7.2-7.7c-2-0.4-3.6,0-4.9,1.3
	c-0.9,1-1.3,1.9-1.4,3.4c-0.1,1.6,0.2,2.5,1.2,3.6c1.2,1.3,3.2,2.5,7.2,4.2c4.9,2,7.2,3.8,8.5,6.3c0.8,1.6,1.1,3,1,5.5
	c-0.1,1.9-0.1,2.3-0.6,3.6c-1.4,4.2-4.6,6.9-9.5,8.2c-1.7,0.4-1.9,0.5-5.2,0.5C1103.9,463.4,1102.1,463.4,1101.8,463.4z
	 M911.3,462.5c-0.1-0.1-0.2-0.4-0.2-1.1c0-1.3-0.1-1.2,2.3-1.6c1.9-0.3,2.5-0.7,3.3-1.8c1.6-2.1,1.9-6.1,1.9-22.6
	c0-15.5-0.3-18.8-1.9-21.2c-0.7-1.1-2-1.6-4-1.9l-1.6-0.2l0-1.2l0-1.2l0.5-0.1c0.3,0,9.9-0.1,21.3,0l20.8,0l0.1,0.6
	c0.1,0.3,0.1,3.7,0.2,7.6l0.1,7l-1.1,0.3c-1.6,0.5-1.6,0.5-2.3-1.4c-1.8-4.7-3.8-7.5-6.6-8.8c-1.9-0.9-2.8-1.1-8.3-1.1h-4.8
	l-0.1,0.8c-0.2,1.5-0.4,11-0.4,15.6l0,4.5l1.4,0c0.8,0,2.3-0.1,3.4-0.1c1.6-0.1,2.1-0.2,2.8-0.5c1.7-0.8,2.8-2.5,3.5-5.3l0.4-1.4
	l1.2,0l1.2,0v9.1v9.1l-1.2,0l-1.2,0l-0.3-1.4c-0.7-2.7-1.9-4.6-3.5-5.3c-0.7-0.3-2.5-0.5-6-0.6l-1.6,0v3.4c0,3.7,0.2,8.7,0.5,11.5
	c0.4,3.8,1.3,5.9,3.1,6.7c0.3,0.1,1.4,0.4,2.3,0.5c1,0.1,1.9,0.3,2,0.4c0.4,0.2,0.4,2.2,0,2.3C938.3,462.6,911.6,462.6,911.3,462.5
	L911.3,462.5z M985.8,462.5c-0.1-0.1-0.2-0.4-0.2-1.2l0-1l0.5-0.1c0.3-0.1,0.9-0.2,1.4-0.3c1.5-0.3,2.3-1.1,2.8-2.6
	c0.4-1.3,0.6-5.3,0.6-13.5c0-9.9-0.2-12.3-1.2-13.6c-0.5-0.7-0.9-0.9-2.3-1.2c-0.7-0.1-1.3-0.3-1.5-0.3c-0.3-0.1-0.3-0.2-0.3-0.9
	c0-0.7,0-0.8,0.3-1c0.5-0.2,15.4-3.2,15.9-3.2h0.4l-0.1,2.2c0,1.2-0.1,3-0.1,4l-0.1,1.7l0.5-1c1.7-3.1,3.7-5.1,6.3-6.3
	c1.4-0.7,2.4-0.8,4.1-0.8c2.1,0,4.2,0.7,4.2,1.4c0,0.5-3.7,10.1-3.9,10.2c-0.1,0-0.8-0.2-1.6-0.6c-1.6-0.8-3.1-1.2-4.6-1.2
	c-1.8,0-3.9,0.7-4.7,1.5c-0.3,0.4-0.3,0.4-0.4,5.9c-0.1,5.5,0.1,12.2,0.4,14.9c0.3,2.3,0.9,3.4,2.1,4c0.4,0.2,3.1,0.5,3.9,0.5
	c0.1,0,0.1,0.5,0.1,1.2l0,1.2l-11.2,0C991,462.6,985.9,462.5,985.8,462.5L985.8,462.5z"/>
</svg>
