<?xml version="1.0" encoding="utf-8"?>
<!-- Generator: Adobe Illustrator 21.0.2, SVG Export Plug-In . SVG Version: 6.00 Build 0)  -->
<svg version="1.1" id="Layer_1" xmlns="http://www.w3.org/2000/svg" xmlns:xlink="http://www.w3.org/1999/xlink" x="0px" y="0px"
	 viewBox="0 0 230 80" style="enable-background:new 0 0 230 80;" xml:space="preserve">
<style type="text/css">
	.st0{fill:#FEFEFE;}
	.st1{fill:#6E747E;}
</style>
<g>
	<rect x="-35" y="-543.5" class="st0" width="74.9" height="18.3"/>
	<path d="M26-532.5v-1.8h-0.5c-0.5,0-0.9,0.4-0.9,1c0,0.7,0.4,1,0.8,1C25.6-532.2,25.8-532.3,26-532.5 M24.5-536.8l-0.4,1.3H23v-1.6
		c0.6-0.2,1.4-0.5,2.5-0.5c1.7,0,2.5,0.7,2.5,2v3.4l0.7,0.3v0.5c-0.2,0.1-0.8,0.2-1.3,0.2c-0.6,0-1.2-0.2-1.2-0.9h-0.1
		c-0.3,0.6-1,0.9-1.8,0.9c-1.1,0-1.8-0.7-1.8-1.7c0-1.3,0.8-1.5,2.2-1.8l1.2-0.2v-0.7c0-0.8-0.2-1.2-1-1.2
		C24.8-536.8,24.6-536.8,24.5-536.8"/>
	<path d="M3.6-532.5v-1.8H3.1c-0.5,0-0.9,0.4-0.9,1c0,0.7,0.4,1,0.8,1C3.3-532.2,3.5-532.3,3.6-532.5 M2.2-536.8l-0.4,1.3H0.7v-1.6
		c0.6-0.2,1.4-0.5,2.5-0.5c1.7,0,2.5,0.7,2.5,2v3.4l0.7,0.3v0.5c-0.2,0.1-0.8,0.2-1.3,0.2c-0.6,0-1.2-0.2-1.2-0.9H3.8
		c-0.3,0.6-1,0.9-1.8,0.9c-1.1,0-1.8-0.7-1.8-1.7c0-1.3,0.8-1.5,2.2-1.8l1.2-0.2v-0.7c0-0.8-0.2-1.2-1-1.2
		C2.5-536.8,2.3-536.8,2.2-536.8"/>
	<path d="M-31.1-533v-3.4h-1v-0.9l1-0.1v-1.2l2.1-0.3v1.5h1.4v1.1H-29v3.3c0,0.6,0.2,0.9,0.8,0.9c0.2,0,0.5,0,0.7,0v0.8
		c-0.3,0.2-1,0.4-1.7,0.4C-30.5-531.1-31.1-531.7-31.1-533"/>
	<path d="M-16.9-536.9c0.5,0,0.8,0.2,0.8,1.8l-1.7,0.1C-17.9-536.4-17.6-536.9-16.9-536.9 M-17.8-534.2h3.7c0-2.6-0.9-3.4-2.8-3.4
		c-1.8,0-3.1,1.2-3.1,3.2c0,2.1,1.1,3.3,3.2,3.3c1.1,0,2.1-0.5,2.4-0.9v-0.6c-0.4,0.1-0.9,0.2-1.7,0.2
		C-17.2-532.4-17.7-533-17.8-534.2"/>
	<path d="M-10.8-529.2c-1.1,0-1.6-0.3-1.6-0.7c0-0.3,0.1-0.6,0.3-0.8h2.4c0.5,0,0.9,0.1,0.9,0.5C-8.8-529.5-9.4-529.2-10.8-529.2
		 M-10.7-536.9c0.4,0,0.7,0.3,0.7,1.4c0,1-0.3,1.3-0.7,1.3s-0.7-0.3-0.7-1.3C-11.5-536.5-11.2-536.9-10.7-536.9 M-9.5-532.6h-2.1
		c-0.3,0-0.5-0.2-0.5-0.4s0-0.4,0.2-0.5c0.3,0.1,0.7,0.2,1.1,0.2c1.6,0,2.7-0.7,2.7-2c0-0.6-0.2-1-0.6-1.3v-0.1l1.1,0.3v-1.2h-0.1
		l-1.5,0.3h-0.1c-0.4-0.1-0.9-0.3-1.4-0.3c-1.6,0-2.7,0.8-2.7,2.1c0,0.8,0.3,1.4,1,1.8v0.1c-0.6,0.4-1,1-1,1.5s0.3,1,1,1.2v0.1
		c-0.6,0.2-1.4,0.4-1.4,1.1c0,0.8,1,1.4,3,1.4c2.4,0,3.5-1,3.5-2.5C-7.3-532.1-8.1-532.6-9.5-532.6"/>
	<polygon points="18.8,-537.2 18.8,-536.6 19.6,-536.3 19.6,-532.2 18.8,-531.9 18.8,-531.3 22.4,-531.3 22.4,-531.9 21.6,-532.2 
		21.6,-537.6 21.5,-537.6 	"/>
	<path d="M6.7-537.2v0.6l0.8,0.3v4.1l-0.7,0.3v0.6h3.8v-0.6l-1-0.3v-3.4c0.4-0.2,0.8-0.2,1.4-0.2c0.2,0,0.4,0,0.5,0.1v-1.8
		c-0.1,0-0.2,0-0.3,0c-0.7,0-1.2,0.4-1.6,1.3H9.4v-1.3H9.2L6.7-537.2"/>
	<path d="M20.6-540.2c0.6,0,1.1,0.5,1.1,1.1s-0.5,1.1-1.1,1.1s-1.1-0.5-1.1-1.1S20-540.2,20.6-540.2"/>
	<path d="M15.7-538.8l-0.8-0.3v-0.6l2.7-0.4h0.2v7.8l0.7,0.4v0.6L16-531h-0.2v-0.6h-0.1c-0.3,0.3-0.8,0.7-1.6,0.7
		c-1.1,0-2.5-0.7-2.5-3.1c0-2.5,1.4-3.4,3-3.4c0.3,0,0.7,0.1,1,0.3L15.7-538.8 M15.7-532.4v-4.2c-0.2-0.1-0.3-0.2-0.7-0.2
		c-0.6,0-1.1,0.6-1.1,2.3c0,1.5,0.4,2.2,1.2,2.2C15.4-532.2,15.6-532.3,15.7-532.4"/>
	<path d="M-6.5-536.3l-0.8-0.3v-0.6l2.7-0.4h0.2v4.4c0,0.7,0.3,0.8,0.9,0.8c0.4,0,0.5-0.1,0.7-0.1v-3.7l-0.8-0.3v-0.6l2.7-0.4h0.2
		v5.3L0-532v0.5l-2.6,0.3h-0.2v-0.8h-0.1c-0.4,0.5-1,0.9-1.9,0.9c-1.2,0-1.8-0.9-1.8-2L-6.5-536.3"/>
	<path d="M-27.2-531.9l0.7-0.3v-6.6l-0.8-0.3v-0.6l2.6-0.4h0.2v3.4h0.1c0.6-0.5,1.3-0.8,2.1-0.8c1,0,1.6,0.5,1.6,1.7v3.8l0.7,0.3
		v0.6h-3.5v-0.6l0.7-0.3v-3.2c0-0.6-0.3-0.9-0.8-0.9c-0.3,0-0.6,0.1-0.9,0.2v3.9l0.7,0.3v0.6h-3.5L-27.2-531.9"/>
	<path d="M29.1-531.9l0.7-0.3v-4.1l-0.8-0.3v-0.6l2.6-0.4h0.2v0.8h0.1c0.6-0.5,1.3-0.8,2.1-0.8c1,0,1.6,0.5,1.6,1.7v3.8l0.7,0.3v0.6
		h-3.5v-0.6l0.7-0.3v-3.2c0-0.6-0.3-0.9-0.8-0.9c-0.3,0-0.6,0.1-0.9,0.2v3.9l0.7,0.3v0.6H29L29.1-531.9"/>
</g>
<g>
	<path class="st1" d="M189,47.8v-5.5l-1.5,0.1c-1.5,0.1-2.7,1.1-2.7,3c0,2.2,1.2,3.1,2.4,3.1C187.9,48.5,188.6,48.2,189,47.8
		 M184.4,34.2l-1.4,4h-3.4V33c1.8-0.6,4.4-1.5,7.8-1.5c5.2,0,8,2.1,8,6.4v10.6l2.3,1v1.7c-0.6,0.3-2.5,0.8-4.1,0.8
		c-2,0-3.6-0.6-3.9-2.8h-0.2c-0.9,1.7-3.2,2.8-5.6,2.8c-3.5,0-5.6-2.2-5.6-5.5c0-4,2.6-4.9,6.9-5.8l3.7-0.6v-2.4
		c0-2.5-0.8-3.8-3.3-3.8C185.4,34.1,184.8,34.1,184.4,34.2"/>
	<path class="st1" d="M118.5,47.8v-5.5l-1.5,0.1c-1.5,0.1-2.7,1.1-2.7,3c0,2.2,1.2,3.1,2.4,3.1C117.4,48.5,118.2,48.2,118.5,47.8
		 M113.9,34.2l-1.4,4h-3.4V33c1.8-0.6,4.4-1.5,7.8-1.5c5.2,0,8,2.1,8,6.4v10.6l2.3,1v1.7c-0.6,0.3-2.5,0.8-4.1,0.8
		c-2,0-3.6-0.6-3.9-2.8H119c-0.9,1.7-3.2,2.8-5.6,2.8c-3.5,0-5.6-2.2-5.6-5.5c0-4,2.6-4.9,6.9-5.8l3.7-0.6v-2.4
		c0-2.5-0.8-3.8-3.3-3.8C114.9,34.1,114.3,34.1,113.9,34.2"/>
	<path class="st1" d="M9,46.1V35.3H6v-3L9,32v-3.7l6.5-0.9V32h4.3v3.4h-4.3v10.3c0,1.9,0.5,2.9,2.4,2.9c0.7,0,1.6-0.1,2.1-0.2v2.5
		c-1.1,0.6-3.3,1.1-5.3,1.1C10.8,52,9,50.3,9,46.1"/>
	<path class="st1" d="M53.7,33.9c1.6,0,2.5,0.7,2.5,5.8L50.8,40C50.8,35.4,51.7,33.9,53.7,33.9 M50.9,42.4h11.7
		c0-8.2-2.8-10.8-8.7-10.8c-5.8,0-9.6,3.8-9.6,10.2c0,6.7,3.5,10.3,10.2,10.3c3.6,0,6.5-1.6,7.4-2.8v-1.9c-1.4,0.4-2.8,0.7-5.3,0.7
		C53,48,51.2,46.2,50.9,42.4"/>
	<path class="st1" d="M73.1,58c-3.6,0-5.1-0.9-5.1-2.3c0-1,0.3-1.8,0.9-2.4h7.7c1.6,0,2.9,0.2,2.9,1.7C79.4,57,77.5,58,73.1,58
		 M73.3,33.9c1.4,0,2.3,1,2.3,4.3s-0.9,4.1-2.3,4.1S71,41.5,71,38.2S71.9,33.9,73.3,33.9 M77.2,47.4h-6.5c-1,0-1.6-0.6-1.6-1.3
		c0-0.5,0.1-1.3,0.6-1.7c1.1,0.3,2.3,0.5,3.6,0.5c5,0,8.5-2.2,8.5-6.5c0-1.9-0.7-3-1.9-4.1l0.1-0.2l3.4,1v-3.7H83l-4.9,0.9h-0.3
		c-1.2-0.4-2.9-0.8-4.5-0.8c-5,0-8.5,2.4-8.5,6.7c0,2.6,1.1,4.5,3.2,5.6V44c-1.8,1.3-3.2,3.1-3.2,4.7c0,1.5,1.1,3.3,3.1,3.8v0.2
		c-1.8,0.6-4.3,1.3-4.3,3.4c0,2.6,3.3,4.4,9.4,4.4c7.6,0,11.1-3.1,11.1-7.8C84,49,81.5,47.4,77.2,47.4"/>
	<polygon class="st1" points="166.4,32.8 166.4,34.8 168.9,35.8 168.9,48.6 166.5,49.6 166.5,51.6 177.7,51.6 177.7,49.6 
		175.4,48.6 175.4,31.5 174.8,31.5 	"/>
	<path class="st1" d="M128.2,32.8v2l2.4,1v12.8l-2.3,1v2h12v-2l-3.1-1V38c1.1-0.5,2.6-0.7,4.3-0.7c0.6,0,1.3,0.1,1.6,0.2v-5.7
		c-0.2-0.1-0.6-0.1-1-0.1c-2.1,0-3.9,1.4-5,4h-0.2v-4.1h-0.5L128.2,32.8"/>
	<path class="st1" d="M172.1,23.5c1.9,0,3.5,1.5,3.5,3.4s-1.5,3.5-3.5,3.5c-1.9,0-3.4-1.5-3.4-3.5C168.6,25,170.2,23.5,172.1,23.5"
		/>
	<path class="st1" d="M156.6,27.8l-2.6-1v-2l8.6-1.3h0.5V48l2.3,1.1V51l-8,0.9h-0.6v-2h-0.2c-0.8,1-2.5,2.1-4.9,2.1
		c-3.6,0-7.8-2.3-7.8-9.8c0-7.9,4.3-10.7,9.5-10.7c1.1,0,2.4,0.2,3.1,0.8L156.6,27.8 M156.6,48.1V34.9c-0.5-0.4-1-0.7-2.2-0.7
		c-2,0-3.6,1.8-3.6,7.4c0,4.8,1.2,6.9,3.8,6.9C155.6,48.5,156.2,48.3,156.6,48.1"/>
	<path class="st1" d="M86.7,35.8l-2.4-1v-2l8.4-1.3h0.5v13.8c0,2.2,1.1,2.6,2.7,2.6c1.2,0,1.7-0.2,2.3-0.5V35.8l-2.4-1v-2l8.4-1.3
		h0.5v16.7l2.4,1.1V51L99,51.9h-0.6v-2.6h-0.2c-1.3,1.6-3.3,2.7-6,2.7c-3.9,0-5.6-2.8-5.6-6.2L86.7,35.8"/>
	<path class="st1" d="M21.2,49.6l2.3-1V27.8l-2.4-1v-2l8.3-1.3h0.5v10.6h0.2c1.7-1.6,4.1-2.6,6.8-2.6c3.3,0,4.9,1.6,4.9,5.2v11.8
		l2.3,1v2H33.3v-2l2.1-1V38.4c0-2-0.9-2.7-2.6-2.7c-1,0-1.9,0.2-2.7,0.5v12.4l2.1,1v2h-11V49.6"/>
	<path class="st1" d="M198.9,49.6l2.3-1V35.8l-2.4-1v-2l8.3-1.3h0.5v2.6h0.2c1.8-1.6,4.1-2.6,6.8-2.6c3.3,0,4.9,1.6,4.9,5.2v11.8
		l2.3,1v2H211v-2l2.1-1V38.4c0-2-0.9-2.7-2.6-2.7c-1,0-1.9,0.2-2.7,0.5v12.4l2.1,1v2H199v-2"/>
</g>
</svg>
