<?xml version="1.0" encoding="utf-8"?>
<!-- Generator: Adobe Illustrator 21.0.2, SVG Export Plug-In . SVG Version: 6.00 Build 0)  -->
<svg version="1.1"
	 id="svg3956" xmlns:cc="http://creativecommons.org/ns#" xmlns:dc="http://purl.org/dc/elements/1.1/" xmlns:rdf="http://www.w3.org/1999/02/22-rdf-syntax-ns#" xmlns:svg="http://www.w3.org/2000/svg"
	 xmlns="http://www.w3.org/2000/svg" xmlns:xlink="http://www.w3.org/1999/xlink" x="0px" y="0px" viewBox="725.5 403.7 230 80"
	 style="enable-background:new 725.5 403.7 230 80;" xml:space="preserve">
<style type="text/css">
	.st0{fill:#6E747E;}
</style>
<g id="layer1" transform="translate(-175.71429,-742.75959)">
	<g id="g3909" transform="matrix(2.1040423,0,0,2.1040423,81.032405,141.77576)">
		<path id="path3321" class="st0" d="M435.7,485.8c0,1.2,0,1.4,0.7,1.5l0.4,0c0.1,0,0,0.3,0,0.3c-0.7,0-1.1,0-1.6,0
			c-0.5,0-0.9,0-1.6,0c-0.1,0-0.1-0.2,0-0.3l0.4,0c0.7-0.1,0.7-0.2,0.7-1.5v-5.3c0-0.4,0-0.4-0.4-0.4h-0.7c-0.5,0-1.2,0-1.5,0.3
			c-0.3,0.3-0.4,0.5-0.5,0.8c-0.1,0.1-0.3,0-0.3-0.1c0.2-0.5,0.4-1.3,0.5-1.8c0,0,0.2,0,0.2,0c0.1,0.4,0.5,0.4,1,0.4h4.8
			c0.6,0,0.7,0,0.9-0.3c0.1,0,0.2,0,0.2,0c-0.1,0.5-0.2,1.4-0.2,1.8c0,0.1-0.2,0.1-0.3,0c0-0.3-0.1-0.7-0.3-0.9
			c-0.3-0.2-0.7-0.3-1.4-0.3H436c-0.4,0-0.3,0-0.3,0.4L435.7,485.8L435.7,485.8z"/>
		<path id="path3325" class="st0" d="M443.3,483.8c-0.6,0-0.6,0-0.6,0.4v1.7c0,1.2,0.1,1.4,0.7,1.5l0.3,0c0.1,0,0,0.3,0,0.3
			c-0.6,0-1,0-1.5,0c-0.5,0-0.9,0-1.4,0c-0.1,0-0.1-0.2,0-0.3l0.2,0c0.7-0.1,0.7-0.2,0.7-1.5v-4.3c0-1.2-0.1-1.4-0.7-1.5l-0.3,0
			c-0.1,0,0-0.3,0-0.3c0.6,0,1,0,1.5,0c0.5,0,0.9,0,1.4,0c0.1,0,0.1,0.2,0,0.3l-0.2,0c-0.7,0.1-0.7,0.2-0.7,1.5v1.4
			c0,0.4,0,0.4,0.6,0.4h3.4c0.6,0,0.6,0,0.6-0.4v-1.4c0-1.2,0-1.4-0.7-1.5l-0.2,0c-0.1,0,0-0.3,0-0.3c0.5,0,0.9,0,1.4,0
			c0.5,0,0.9,0,1.4,0c0.1,0,0.1,0.2,0,0.3l-0.2,0c-0.7,0.1-0.7,0.2-0.7,1.5v4.3c0,1.2,0,1.4,0.7,1.5l0.3,0c0.1,0,0,0.3,0,0.3
			c-0.6,0-1,0-1.4,0c-0.5,0-0.9,0-1.4,0c-0.1,0-0.1-0.2,0-0.3l0.2,0c0.7-0.1,0.7-0.2,0.7-1.5v-1.7c0-0.4,0-0.4-0.6-0.4H443.3
			L443.3,483.8z"/>
		<path id="path3329" class="st0" d="M452.2,481.6c0-1.2,0-1.4-0.7-1.5l-0.2,0c-0.1,0,0-0.3,0-0.3c0.5,0,0.9,0,1.4,0h2.2
			c0.8,0,1.5,0,1.6,0c0.1,0.2,0.1,1.1,0.2,1.6c0,0.1-0.2,0.1-0.3,0c-0.2-0.6-0.3-1-0.9-1.1c-0.2-0.1-0.6-0.1-1.1-0.1h-0.9
			c-0.4,0-0.4,0-0.4,0.5v2.4c0,0.3,0,0.3,0.4,0.3h0.7c0.5,0,0.9,0,1-0.1c0.1,0,0.2-0.1,0.3-0.4l0.1-0.5c0.1-0.1,0.3-0.1,0.3,0
			c0,0.3,0,0.7,0,1.2c0,0.4,0,0.9,0,1.1c0,0.1-0.2,0.1-0.3,0l-0.1-0.5c0-0.2-0.1-0.4-0.4-0.5c-0.2,0-0.5-0.1-0.9-0.1h-0.7
			c-0.4,0-0.4,0-0.4,0.3v1.7c0,0.6,0,1,0.2,1.2c0.1,0.1,0.4,0.3,1.4,0.3c0.9,0,1.3,0,1.5-0.2c0.2-0.1,0.5-0.5,0.8-1.1
			c0.1-0.1,0.2,0,0.3,0.1c-0.1,0.4-0.4,1.3-0.5,1.6c-1.1,0-2.1,0-3.2,0h-1.1c-0.5,0-0.9,0-1.6,0c-0.1,0-0.1-0.2,0-0.3l0.4,0
			c0.7-0.1,0.7-0.2,0.7-1.5L452.2,481.6L452.2,481.6z"/>
		<path id="path3333" class="st0" d="M404.2,496.2c-0.6,0-0.6,0-0.6,0.4v1.7c0,1.2,0.1,1.4,0.7,1.5l0.3,0c0.1,0,0,0.3,0,0.3
			c-0.6,0-1,0-1.5,0c-0.5,0-0.9,0-1.4,0c-0.1,0-0.1-0.2,0-0.3l0.2,0c0.7-0.1,0.7-0.2,0.7-1.5V494c0-1.2-0.1-1.4-0.7-1.5l-0.3,0
			c-0.1,0,0-0.3,0-0.3c0.6,0,1,0,1.5,0c0.5,0,0.9,0,1.4,0c0.1,0,0.1,0.2,0,0.3l-0.2,0c-0.7,0.1-0.7,0.2-0.7,1.5v1.4
			c0,0.4,0,0.4,0.6,0.4h3.4c0.6,0,0.6,0,0.6-0.4V494c0-1.2,0-1.4-0.7-1.5l-0.2,0c-0.1,0,0-0.3,0-0.3c0.5,0,0.9,0,1.4,0
			c0.5,0,0.9,0,1.4,0c0.1,0,0.1,0.2,0,0.3l-0.2,0c-0.7,0.1-0.7,0.2-0.7,1.5v4.3c0,1.2,0,1.4,0.7,1.5l0.3,0c0.1,0,0,0.3,0,0.3
			c-0.6,0-1,0-1.4,0c-0.5,0-0.9,0-1.4,0c-0.1,0-0.1-0.2,0-0.3l0.2,0c0.7-0.1,0.7-0.2,0.7-1.5v-1.7c0-0.4,0-0.4-0.6-0.4H404.2z"/>
		<path id="path3337" class="st0" d="M418.8,495.2c0-0.7,0-2.1-0.2-2.5c-0.1-0.1-0.3-0.2-0.6-0.2l-0.3,0c-0.1-0.1,0-0.2,0-0.3
			c0.5,0,0.9,0,1.4,0c0.5,0,0.8,0,1.2,0c0.1,0.1,0.1,0.2,0,0.3l-0.3,0c-0.3,0-0.5,0.1-0.6,0.3c-0.2,0.4-0.2,1.8-0.2,2.4v1.3
			c0,1-0.2,2.1-0.8,2.8c-0.5,0.6-1.4,0.9-2.3,0.9c-0.8,0-1.6-0.2-2.2-0.7c-0.6-0.5-0.9-1.4-0.9-2.8V494c0-1.2,0-1.4-0.7-1.5l-0.3,0
			c-0.1,0,0-0.2,0-0.3c0.6,0,1,0,1.5,0c0.5,0,0.9,0,1.5,0c0.1,0,0.1,0.2,0,0.3l-0.3,0c-0.7,0.1-0.7,0.3-0.7,1.5v2.6
			c0,1.9,0.6,3.2,2.4,3.2c1.7,0,2.4-1.4,2.4-3.2L418.8,495.2L418.8,495.2z"/>
		<path id="path3341" class="st0" d="M423.9,495.6c0,0.3,0,0.3,0.4,0.3h0.8c0.5,0,0.9,0,1-0.1c0.1,0,0.2-0.1,0.3-0.4l0.1-0.5
			c0.1-0.1,0.3-0.1,0.3,0c0,0.3,0,0.8,0,1.2c0,0.4,0,0.9,0,1.1c0,0.1-0.2,0.1-0.3,0l-0.1-0.5c-0.1-0.2-0.2-0.4-0.4-0.4
			c-0.2,0-0.5-0.1-0.9-0.1h-0.8c-0.4,0-0.4,0-0.4,0.3v1.6c0,1.2,0,1.4,0.7,1.5l0.4,0c0.1,0,0,0.3,0,0.3c-0.7,0-1.1,0-1.6,0
			c-0.5,0-0.9,0-1.5,0c-0.1,0-0.1-0.2,0-0.3l0.3,0c0.7-0.1,0.7-0.2,0.7-1.5V494c0-1.2,0-1.4-0.7-1.5l-0.2,0c-0.1,0,0-0.3,0-0.3
			c0.5,0,0.9,0,1.4,0h2.2c0.8,0,1.4,0,1.6,0c0,0.5,0,1.1,0,1.6c0,0.1-0.2,0.1-0.3,0c-0.1-0.5-0.2-1-0.8-1.1
			c-0.3-0.1-0.7-0.1-1.1-0.1h-0.7c-0.4,0-0.4,0-0.4,0.5L423.9,495.6L423.9,495.6z"/>
		<path id="path3345" class="st0" d="M431.1,495.6c0,0.3,0,0.3,0.4,0.3h0.8c0.5,0,0.9,0,1-0.1c0.1,0,0.2-0.1,0.3-0.4l0.1-0.5
			c0.1-0.1,0.3-0.1,0.3,0c0,0.3,0,0.8,0,1.2c0,0.4,0,0.9,0,1.1c0,0.1-0.2,0.1-0.3,0l-0.1-0.5c-0.1-0.2-0.2-0.4-0.4-0.4
			c-0.2,0-0.5-0.1-0.9-0.1h-0.8c-0.4,0-0.4,0-0.4,0.3v1.6c0,1.2,0,1.4,0.7,1.5l0.4,0c0.1,0,0,0.3,0,0.3c-0.7,0-1.1,0-1.6,0
			c-0.5,0-0.9,0-1.5,0c-0.1,0-0.1-0.2,0-0.3l0.3,0c0.7-0.1,0.7-0.2,0.7-1.5V494c0-1.2,0-1.4-0.7-1.5l-0.2,0c-0.1,0,0-0.3,0-0.3
			c0.5,0,0.9,0,1.4,0h2.2c0.8,0,1.4,0,1.6,0c0,0.5,0,1.1,0,1.6c0,0.1-0.2,0.1-0.3,0c-0.1-0.5-0.2-1-0.8-1.1
			c-0.3-0.1-0.7-0.1-1.1-0.1h-0.7c-0.4,0-0.4,0-0.4,0.5V495.6L431.1,495.6z"/>
		<path id="path3349" class="st0" d="M437.3,494c0-1.3,0-1.5-0.7-1.5l-0.3,0c-0.1,0,0-0.3,0-0.3c0.6,0,1,0,1.5,0c0.5,0,0.9,0,1.5,0
			c0.1,0,0.1,0.2,0,0.3l-0.3,0c-0.7,0.1-0.7,0.3-0.7,1.5v4.2c0,1.3,0,1.4,0.7,1.5l0.3,0c0.1,0,0,0.3,0,0.3c-0.6,0-1,0-1.5,0
			c-0.5,0-0.9,0-1.5,0c-0.1,0-0.1-0.2,0-0.3l0.3,0c0.7-0.1,0.7-0.2,0.7-1.5V494z"/>
		<path id="path3353" class="st0" d="M448.6,498c0,0.4,0,1.8,0,2.1c0,0.1-0.1,0.1-0.2,0.1c-0.1-0.2-0.5-0.6-1.5-1.8l-2.7-3.1
			c-0.3-0.4-1.1-1.3-1.4-1.6h0c0,0.1-0.1,0.4-0.1,0.8v2.6c0,0.6,0,2.1,0.2,2.5c0.1,0.1,0.3,0.2,0.6,0.2l0.4,0c0.1,0.1,0.1,0.2,0,0.3
			c-0.5,0-0.9,0-1.4,0c-0.5,0-0.8,0-1.2,0c-0.1-0.1-0.1-0.2,0-0.3l0.3,0c0.3,0,0.5-0.1,0.5-0.2c0.2-0.4,0.2-1.9,0.2-2.4v-3.4
			c0-0.3,0-0.6-0.3-0.9c-0.2-0.2-0.5-0.2-0.7-0.3l-0.2,0c-0.1-0.1-0.1-0.2,0-0.3c0.5,0,1.1,0,1.3,0c0.2,0,0.4,0,0.5,0
			c0.2,0.6,1.6,2.2,2,2.6l1.1,1.3c0.8,0.9,1.4,1.6,2,2.1h0c0-0.1,0-0.2,0-0.5v-2.5c0-0.6,0-2.1-0.2-2.5c-0.1-0.1-0.3-0.2-0.7-0.2
			l-0.2,0c-0.1-0.1-0.1-0.3,0-0.3c0.5,0,0.9,0,1.4,0c0.5,0,0.8,0,1.2,0c0.1,0.1,0.1,0.2,0,0.3l-0.2,0c-0.4,0.1-0.6,0.2-0.7,0.2
			c-0.2,0.4-0.2,1.9-0.2,2.4L448.6,498L448.6,498z"/>
		<path id="path3357" class="st0" d="M458.2,498.8c0,0.5,0.1,0.8,0.3,0.8c0,0,0,0.1,0,0.1c-0.1,0-0.4,0-0.6,0.1
			c-0.6,0.2-1.5,0.3-2.1,0.3c-1.4,0-2.7-0.4-3.6-1.3c-0.7-0.7-1.1-1.6-1.1-2.7c0-1,0.3-2,1.1-2.8c0.8-0.8,2-1.4,3.8-1.4
			c0.7,0,1.3,0.1,1.5,0.2c0.2,0,0.6,0.1,0.7,0.1c0,0.4,0.1,1,0.2,1.7c0,0.1-0.2,0.1-0.3,0c-0.3-1.3-1.2-1.7-2.4-1.7
			c-2.3,0-3.3,1.6-3.3,3.4c0,2.3,1.2,4.1,3.6,4.1c0.7,0,1.2-0.2,1.3-0.4c0.1-0.1,0.1-0.3,0.1-0.7v-0.5c0-1,0-1.1-0.8-1.1l-0.5-0.1
			c-0.1,0-0.1-0.3,0-0.3c0.3,0,1,0,1.7,0c0.5,0,0.9,0,1.3,0c0.1,0,0.1,0.2,0,0.3l-0.2,0c-0.5,0.1-0.5,0.4-0.5,1L458.2,498.8
			L458.2,498.8z"/>
		<path id="path3361" class="st0" d="M464.5,498.3c0,1.2,0,1.4,0.7,1.5l0.4,0c0.1,0,0,0.3,0,0.3c-0.7,0-1.1,0-1.6,0
			c-0.5,0-0.9,0-1.6,0c-0.1,0-0.1-0.2,0-0.3l0.4,0c0.7-0.1,0.7-0.2,0.7-1.5V493c0-0.4,0-0.4-0.4-0.4h-0.7c-0.5,0-1.2,0-1.5,0.3
			c-0.3,0.3-0.4,0.5-0.5,0.8c-0.1,0.1-0.3,0-0.3-0.1c0.2-0.5,0.4-1.3,0.5-1.8c0,0,0.2,0,0.2,0c0.1,0.4,0.5,0.4,1,0.4h4.8
			c0.6,0,0.7,0,0.9-0.3c0.1,0,0.2,0,0.2,0c-0.1,0.5-0.2,1.4-0.2,1.8c0,0.1-0.2,0.1-0.3,0c0-0.3-0.1-0.7-0.3-0.9
			c-0.3-0.2-0.7-0.3-1.4-0.3h-0.8c-0.4,0-0.3,0-0.3,0.4L464.5,498.3L464.5,498.3z"/>
		<path id="path3365" class="st0" d="M469.1,496.2c0-2.4,1.8-4.2,4.2-4.2c2.7,0,4.1,2,4.1,4.1c0,2.4-1.8,4.1-4.1,4.1
			C470.6,500.2,469.1,498.3,469.1,496.2 M476.2,496.5c0-2-0.9-4.1-3.1-4.1c-1.2,0-2.8,0.8-2.8,3.4c0,1.8,0.9,4,3.2,4
			C474.8,499.9,476.2,498.8,476.2,496.5"/>
		<path id="path3369" class="st0" d="M486.4,498c0,0.4,0,1.8,0,2.1c0,0.1-0.1,0.1-0.2,0.1c-0.1-0.2-0.5-0.6-1.5-1.8l-2.7-3.1
			c-0.3-0.4-1.1-1.3-1.4-1.6h0c0,0.1-0.1,0.4-0.1,0.8v2.6c0,0.6,0,2.1,0.2,2.5c0.1,0.1,0.3,0.2,0.6,0.2l0.4,0c0.1,0.1,0.1,0.2,0,0.3
			c-0.5,0-0.9,0-1.4,0c-0.5,0-0.8,0-1.2,0c-0.1-0.1-0.1-0.2,0-0.3l0.3,0c0.3,0,0.5-0.1,0.5-0.2c0.2-0.4,0.2-1.9,0.2-2.4v-3.4
			c0-0.3,0-0.6-0.3-0.9c-0.2-0.2-0.5-0.2-0.7-0.3l-0.2,0c-0.1-0.1-0.1-0.2,0-0.3c0.5,0,1.1,0,1.3,0c0.2,0,0.4,0,0.5,0
			c0.2,0.6,1.6,2.2,2,2.6l1.1,1.3c0.8,0.9,1.4,1.6,2,2.1h0c0-0.1,0-0.2,0-0.5v-2.5c0-0.6,0-2.1-0.2-2.5c-0.1-0.1-0.3-0.2-0.7-0.2
			l-0.2,0c-0.1-0.1-0.1-0.3,0-0.3c0.5,0,0.9,0,1.4,0c0.5,0,0.8,0,1.2,0c0.1,0.1,0.1,0.2,0,0.3l-0.2,0c-0.4,0.1-0.6,0.2-0.7,0.2
			c-0.2,0.4-0.2,1.9-0.2,2.4L486.4,498L486.4,498z"/>
		<path id="path3373" class="st0" d="M431,510.7c0,1.2,0,1.4,0.8,1.5l0.3,0c0.1,0.1,0,0.3,0,0.3c-0.7,0-1.1,0-1.5,0
			c-0.5,0-0.9,0-1.4,0c-0.1,0-0.1-0.2,0-0.3l0.2,0c0.7-0.1,0.7-0.2,0.7-1.5v-4.4c0-1,0-1.2-0.6-1.3l-0.4,0c-0.1-0.1-0.1-0.2,0-0.3
			c0.6-0.1,1.4-0.1,2.3-0.1c1,0,1.7,0.1,2.3,0.5c0.5,0.3,0.9,1,0.9,1.8c0,1.1-0.7,1.6-1.2,1.9c-0.5,0.2-1.1,0.4-1.6,0.4
			c-0.1,0-0.1-0.2,0-0.2c1.3-0.2,1.7-1,1.7-2c0-1.1-0.7-1.9-1.9-1.9c-0.6,0-0.6,0-0.6,0.4L431,510.7L431,510.7z"/>
		<path id="path3377" class="st0" d="M436.3,508.6c0-2.4,1.8-4.2,4.2-4.2c2.7,0,4.1,2,4.1,4.1c0,2.4-1.8,4.1-4.1,4.1
			C437.9,512.7,436.3,510.8,436.3,508.6 M443.5,508.9c0-2-0.9-4.1-3.1-4.1c-1.2,0-2.8,0.8-2.8,3.4c0,1.8,0.9,4,3.2,4
			C442.1,512.3,443.5,511.2,443.5,508.9"/>
		<path id="path3381" class="st0" d="M448.5,512.7c-1,0-1.6-0.3-1.8-0.4c-0.1-0.3-0.3-1.1-0.3-1.7c0.1-0.1,0.2-0.1,0.3,0
			c0.2,0.6,0.7,1.8,2,1.8c1,0,1.5-0.7,1.5-1.4c0-0.5-0.1-1.1-1-1.7l-1.1-0.7c-0.6-0.4-1.3-1.1-1.3-2c0-1.1,0.9-2,2.4-2
			c0.4,0,0.8,0.1,1.1,0.2c0.2,0,0.3,0.1,0.4,0.1c0.1,0.3,0.2,0.9,0.2,1.4c0,0.1-0.2,0.1-0.3,0c-0.2-0.6-0.5-1.3-1.6-1.3
			c-1.2,0-1.4,0.8-1.4,1.3c0,0.7,0.6,1.2,1,1.5l0.9,0.6c0.7,0.5,1.5,1.1,1.5,2.3C451.1,511.8,450.1,512.7,448.5,512.7"/>
		<path id="path3385" class="st0" d="M457,510.7c0,1.2,0,1.4,0.7,1.5l0.4,0c0.1,0,0,0.3,0,0.3c-0.7,0-1.1,0-1.6,0
			c-0.5,0-0.9,0-1.6,0c-0.1,0-0.1-0.2,0-0.3l0.4,0c0.7-0.1,0.7-0.2,0.7-1.5v-5.3c0-0.4,0-0.4-0.4-0.4H455c-0.5,0-1.2,0-1.5,0.3
			c-0.3,0.3-0.4,0.5-0.5,0.8c-0.1,0.1-0.3,0-0.3-0.1c0.2-0.5,0.4-1.3,0.5-1.8c0,0,0.2,0,0.2,0c0.1,0.4,0.5,0.4,1,0.4h4.8
			c0.6,0,0.7,0,0.9-0.3c0.1,0,0.2,0,0.2,0c-0.1,0.5-0.2,1.4-0.2,1.8c0,0.1-0.2,0.1-0.3,0c0-0.3-0.1-0.7-0.3-0.9
			c-0.3-0.2-0.7-0.3-1.4-0.3h-0.8c-0.4,0-0.3,0-0.3,0.4V510.7L457,510.7z"/>
	</g>
</g>
</svg>
