<?xml version="1.0" encoding="utf-8"?>
<!-- Generator: Adobe Illustrator 21.0.2, SVG Export Plug-In . SVG Version: 6.00 Build 0)  -->
<svg version="1.1" id="Layer_1" xmlns="http://www.w3.org/2000/svg" xmlns:xlink="http://www.w3.org/1999/xlink" x="0px" y="0px"
	 viewBox="0 0 230 80" style="enable-background:new 0 0 230 80;" xml:space="preserve">
<style type="text/css">
	.st0{fill:#6E747E;}
</style>
<g id="XMLID_1_">
	<polygon id="XMLID_3_" class="st0" points="40.1,58.2 40.1,34.4 31,58.2 26.9,58.2 17.8,34.4 17.8,58.2 8.5,58.2 8.5,22.2 
		21.4,22.2 29,42 36.4,22.2 49.3,22.2 49.3,58.2 	"/>
	<path id="XMLID_6_" class="st0" d="M67.8,58.2v-2.6c-1.6,1.9-4.8,3.2-8.1,3.2c-4,0-9-2.8-9-8.6c0-6.3,5-8.4,9-8.4
		c3.5,0,6.5,1.1,8.1,3.1v-2.6c0-2.3-1.9-3.8-5.3-3.8c-2.6,0-5.2,1-7.3,2.8l-3.1-5.8c3.3-2.9,7.8-4,11.8-4c6.3,0,12.1,2.3,12.1,10.4
		v16.3H67.8z M67.8,51.5v-2.3c-0.9-1.2-2.8-1.8-4.6-1.8c-2.2,0-4.2,1-4.2,3c0,2.1,2,3,4.2,3C65,53.4,66.9,52.7,67.8,51.5"/>
	<path id="XMLID_7_" class="st0" d="M76.7,54.8l3.5-5.9c1.9,1.7,6.1,3.5,9.2,3.5c2.5,0,3.5-0.7,3.5-1.8c0-3.2-15.2,0.1-15.2-10.5
		c0-4.6,4-8.6,11.2-8.6c4.4,0,8.1,1.4,10.9,3.5l-3.2,5.9c-1.6-1.5-4.5-2.9-7.7-2.9c-1.9,0-3.2,0.8-3.2,1.8c0,2.9,15.1-0.1,15.1,10.6
		c0,5-4.4,8.5-11.8,8.5C84.2,58.8,79.4,57.2,76.7,54.8"/>
	<path id="XMLID_8_" class="st0" d="M119.5,58.2V43c0-3.2-1.7-4.2-4.3-4.2c-2.4,0-4,1.4-5,2.5v16.8h-8.3v-36h8.3v13.1
		c1.6-1.8,4.6-3.8,9-3.8c5.9,0,8.6,3.3,8.6,8.1v18.6H119.5z"/>
	<path id="XMLID_11_" class="st0" d="M146,58.2v-2.6c-1.6,1.9-4.8,3.2-8.1,3.2c-4,0-9-2.8-9-8.6c0-6.3,5-8.4,9-8.4
		c3.5,0,6.5,1.1,8.1,3.1v-2.6c0-2.3-1.9-3.8-5.3-3.8c-2.6,0-5.2,1-7.3,2.8l-3.1-5.8c3.3-2.9,7.8-4,11.8-4c6.3,0,12.1,2.3,12.1,10.4
		l0,16.3H146z M146,51.5v-2.3c-0.9-1.2-2.8-1.8-4.6-1.8c-2.2,0-4.2,1-4.2,3c0,2.1,2,3,4.2,3C143.2,53.4,145.1,52.7,146,51.5"/>
	<path id="XMLID_14_" class="st0" d="M157.2,58.2v-36h8.3v13c2.1-2.6,4.9-3.7,7.7-3.7c6.5,0,11.5,5.1,11.5,13.6
		c0,8.8-5.1,13.7-11.5,13.7c-2.9,0-5.6-1.2-7.7-3.7v3H157.2z M170.4,51.5c3.3,0,5.8-2.4,5.8-6.4c0-3.9-2.5-6.3-5.8-6.3
		c-1.8,0-3.9,1-5,2.4v8C166.5,50.6,168.7,51.5,170.4,51.5"/>
	<rect id="XMLID_15_" x="185.9" y="22.2" class="st0" width="8.3" height="36"/>
	<path id="XMLID_18_" class="st0" d="M195.4,45.1c0-7.6,5.7-13.6,13.8-13.6c7.7,0,13.3,5.7,13.3,14.5v1.9h-18.6
		c0.6,2.3,2.8,4.3,6.5,4.3c1.8,0,4.9-0.8,6.4-2.2l3.6,5.4c-2.6,2.3-6.9,3.5-10.9,3.5C201.5,58.8,195.4,53.6,195.4,45.1 M209.2,38.2
		c-3.6,0-5,2.2-5.3,4h10.7C214.4,40.4,213,38.2,209.2,38.2"/>
</g>
</svg>
