<?xml version="1.0" encoding="utf-8"?>
<!-- Generator: Adobe Illustrator 21.0.2, SVG Export Plug-In . SVG Version: 6.00 Build 0)  -->
<svg version="1.1" id="Layer_1" xmlns="http://www.w3.org/2000/svg" xmlns:xlink="http://www.w3.org/1999/xlink" x="0px" y="0px"
	 viewBox="0 0 230 80" style="enable-background:new 0 0 230 80;" xml:space="preserve">
<style type="text/css">
	.st0{fill:#6E747E;}
</style>
<g>
	<rect x="47.5" y="25.9" class="st0" width="20.1" height="10.3"/>
	<polygon class="st0" points="7.2,25.9 7.2,36.2 17.3,36.2 17.3,56.8 27.3,56.8 27.3,36.2 37.4,36.2 37.4,25.9 	"/>
	<polygon class="st0" points="37.4,56.8 47.5,56.8 67.6,56.8 67.6,46.5 47.5,46.5 47.5,36.2 37.4,36.2 	"/>
	<polygon class="st0" points="93.3,33.7 78.5,33.7 78.5,38 83.5,38 83.5,51.4 88.4,51.4 88.4,38 93.3,38 	"/>
	<path class="st0" d="M98.9,37.9c-3.5,0-6.1,2.3-6.1,6.9c0,4.1,2.2,6.9,6.2,6.9c2.1,0,3.8-0.6,5.4-1.5l-1.7-2.9
		c-1.3,0.7-2.3,0.9-3.4,0.9c-1.2,0-2.1-0.7-2.2-2.1h7.8c0-0.2,0-0.5,0-0.9C104.8,40.3,102.5,37.9,98.9,37.9z M97,43.2
		c0.2-1.3,0.7-2,1.8-2c1.3,0,1.8,0.7,2,2H97z"/>
	<path class="st0" d="M113.4,48c-1.2,0-1.9-1.1-1.9-3.2c0-2.1,0.6-3.3,1.7-3.3c1,0,1.4,0.6,2,1.7l3.1-2.4c-1.2-1.9-2.6-3-5.1-3
		c-4.2,0-6.3,2.8-6.3,6.9c0,4.5,2.3,6.9,6.2,6.9c2.3,0,3.8-0.9,5.3-3.2l-2.9-2.2C114.9,47.5,114.3,48,113.4,48z"/>
	<path class="st0" d="M129.1,37.9c-1.6,0-2.5,0.5-3.3,1.2v-6l-4.5,1.8v16.6h4.5v-7.6c0-1.7,0.6-2.1,1.5-2.1c0.9,0,1.5,0.5,1.5,2.2
		v7.5h4.6v-8.1C133.4,39.8,132,37.9,129.1,37.9z"/>
	<path class="st0" d="M144.3,47.4c-2.1,0-3-2.1-3-4.8c0-2.8,0.9-4.8,2.9-4.8c1.6,0,2.2,1,2.9,2.7l4.4-1.7c-1.2-3.3-2.9-5.2-7.3-5.2
		c-4.7,0-8.1,3.4-8.1,9.1c0,5.2,2.8,9.1,8.1,9.1c4.2,0,6.2-2.2,7.3-4.6l-4.1-2.2C146.5,46.6,145.9,47.4,144.3,47.4z"/>
	<path class="st0" d="M158.9,39.1v-1h-4.5v13.3h4.5v-7.2c0-1.6,0.7-2.1,1.8-2.1c0.9,0,1.5,0.5,2.1,1.1l1.1-4.7
		c-0.5-0.3-1.2-0.6-2.1-0.6C160.6,37.9,159.7,38.3,158.9,39.1z"/>
	<path class="st0" d="M173.7,45.7c0,1.7-0.6,2.1-1.5,2.1s-1.5-0.5-1.5-2.2v-7.5h-4.6v8.1c0,3.5,1.4,5.4,4.3,5.4
		c1.5,0,2.5-0.5,3.3-1.2v0.9h4.6V38.1h-4.6V45.7z"/>
	<path class="st0" d="M189.4,37.9c-1.6,0-2.5,0.5-3.3,1.2v-0.9h-4.5v13.3h4.5v-7.6c0-1.7,0.6-2.1,1.5-2.1c0.9,0,1.5,0.5,1.5,2.2v7.5
		h4.6v-8.1C193.7,39.8,192.4,37.9,189.4,37.9z"/>
	<path class="st0" d="M202.8,48c-1.2,0-1.9-1.1-1.9-3.2c0-2.1,0.6-3.3,1.7-3.3c1,0,1.4,0.6,2,1.7l3.1-2.4c-1.2-1.9-2.6-3-5.1-3
		c-4.2,0-6.3,2.8-6.3,6.9c0,4.5,2.3,6.9,6.2,6.9c2.3,0,3.8-0.9,5.3-3.2l-2.9-2.2C204.3,47.5,203.6,48,202.8,48z"/>
	<path class="st0" d="M218.4,37.9c-1.6,0-2.5,0.5-3.3,1.2v-6l-4.5,1.8v16.6h4.5v-7.6c0-1.7,0.6-2.1,1.5-2.1c0.9,0,1.5,0.5,1.5,2.2
		v7.5h4.6v-8.1C222.7,39.8,221.4,37.9,218.4,37.9z"/>
</g>
</svg>
