<?xml version="1.0" encoding="utf-8"?>
<!-- Generator: Adobe Illustrator 21.0.2, SVG Export Plug-In . SVG Version: 6.00 Build 0)  -->
<svg version="1.1" id="Layer_1" xmlns="http://www.w3.org/2000/svg" xmlns:xlink="http://www.w3.org/1999/xlink" x="0px" y="0px"
	 viewBox="0 0 230 80" style="enable-background:new 0 0 230 80;" xml:space="preserve">
<style type="text/css">
	.st0{fill:#6E747E;}
</style>
<path class="st0" d="M27.8,29.2c-0.8,0-1.4-0.1-2.1-0.2v12.4c0,0.3,0,0.4-0.2,0.5l-7.1,4.5c1.1,0.5,2.3,0.8,3.6,0.8
	c4.5,0,9.5-2.4,11.9-8.6c0.1-0.3,0.4-0.4,0.4,0.2v0.4c0,6.7-5.1,12.7-12.6,12.7c-8.2,0-13.1-6.2-13.1-12.6c0-4.8,2.7-9.4,8.7-11.2
	c0.3-0.1,0.3,0,0.1,0.2c-2.7,2.1-4.1,5.4-4.1,8.8c0,3.6,1.4,7.1,4.6,9l1.8-1.3c0.6-0.5,0.7-0.9,0.7-1.6V28c-1.9-0.7-3.7-1.1-5.3-1.1
	c-2.2,0-4.2,1-6.1,3.3c-0.2,0.3-0.3,0.3-0.3,0c0.3-4.8,4.5-7.5,8.7-7.5c4.8,0,9.3,2.4,14.2,2.4c1.7,0,3.5-0.4,5-1.2
	c0.2-0.1,0.3,0.1,0.2,0.3C35.2,27.9,31.5,29.2,27.8,29.2z M50.7,51.7c-0.2,0.2-0.2,0.1-0.3,0l-3.4-3c-0.3-0.3-0.5-0.5-0.5-1.1V36.1
	c0-0.1,0-0.3-0.2-0.4l-1.1-1c-0.1-0.1-0.3-0.1-0.5,0l-2.1,1v10.9c0,0.2,0,0.3,0.1,0.5l1,0.8c0.3,0.2,0.7,0.5,1.1,0.3l0.3-0.1
	c0.4-0.2,0.5,0.1,0.3,0.3l-3.9,3.3c-0.2,0.2-0.2,0.1-0.3,0l-3.4-3c-0.4-0.3-0.4-0.4-0.4-1V29.1c0-0.2,0-0.3-0.2-0.4l-0.4-0.4
	c-0.4-0.4-0.6-0.3-1.1,0l-0.8,0.4c-0.1,0-0.3-0.1,0-0.3l4.5-3.7c0.2-0.2,0.2-0.1,0.3,0l2.7,2.5c0.3,0.3,0.5,0.5,0.5,1.1v7l5.6-3.5
	c0.2-0.1,0.3-0.1,0.5,0l2.7,2.5c0.4,0.3,0.5,0.6,0.5,1v11.5c0,0.2,0,0.3,0.2,0.4l1.1,0.9c0.4,0.4,0.6,0.3,1.1,0l0.8-0.4
	c0.1,0,0.3,0.1,0,0.3L50.7,51.7z M68.6,37.8l-7.5,4.7V46c0,0.3,0,0.5,0.3,0.6l2.4,1.3c0.4,0.2,1.1,0.4,1.6,0.2l2.2-1.3
	c0.4-0.2,0.7-0.1,0.5,0.1L62,51.8c-0.1,0.1-0.1,0.1-0.3,0l-5.4-2.9c-0.4-0.2-0.5-0.3-0.5-0.9V34.7c0-0.2,0.1-0.3,0.3-0.4l8.9-2.9
	c0.1,0,0.3-0.1,0.3,0.1l3.3,5.9C68.8,37.6,68.8,37.7,68.6,37.8z M61.2,33.7L61.2,33.7l-0.1,8.2l2.9-2.4c0.2-0.1,0.2-0.2,0.1-0.3
	L61.2,33.7z M93,29.2c-0.8,0-1.4-0.1-2.1-0.2v12.4c0,0.3,0,0.4-0.2,0.5l-7.1,4.5c1.1,0.5,2.3,0.8,3.6,0.8c4.5,0,9.5-2.4,11.9-8.6
	c0.1-0.3,0.4-0.4,0.4,0.2v0.4c0,6.7-5.1,12.7-12.6,12.7c-8.2,0-13.1-6.2-13.1-12.6c0-4.8,2.7-9.4,8.7-11.2c0.3-0.1,0.3,0,0.1,0.2
	c-2.7,2.1-4.1,5.4-4.1,8.8c0,3.6,1.4,7.1,4.6,9l1.8-1.3c0.6-0.4,0.7-0.9,0.7-1.6V28c-1.9-0.7-3.7-1.1-5.3-1.1c-2.2,0-4.2,1-6.1,3.3
	c-0.2,0.3-0.3,0.3-0.3,0c0.3-4.8,4.5-7.5,8.7-7.5c4.8,0,9.3,2.4,14.2,2.4c1.7,0,3.5-0.4,5-1.2c0.2-0.1,0.3,0.1,0.2,0.3
	C100.4,27.9,96.7,29.2,93,29.2z M114.3,37.8l-7.5,4.7V46c0,0.3,0,0.5,0.3,0.6l2.4,1.3c0.4,0.2,1.1,0.4,1.6,0.2l2.2-1.3
	c0.4-0.2,0.7-0.1,0.5,0.1l-6.1,4.9c-0.1,0.1-0.1,0.1-0.3,0l-5.4-2.9c-0.4-0.2-0.5-0.3-0.5-0.9V34.7c0-0.2,0.1-0.3,0.3-0.4l8.9-2.9
	c0.1,0,0.3-0.1,0.3,0.1l3.3,5.9C114.5,37.6,114.5,37.7,114.3,37.8z M107,33.7L107,33.7l-0.1,8.2l2.9-2.4c0.2-0.1,0.2-0.2,0.1-0.3
	L107,33.7z M120.2,51.7c-0.2,0.2-0.2,0.1-0.3,0l-3.4-3c-0.4-0.3-0.4-0.4-0.4-1V29.1c0-0.2,0-0.3-0.2-0.4l-0.4-0.4
	c-0.4-0.4-0.6-0.3-1.1,0l-0.8,0.4c-0.1,0-0.3-0.1,0-0.3l4.5-3.7c0.2-0.2,0.2-0.1,0.3,0l2.7,2.5c0.3,0.3,0.5,0.5,0.5,1.1v18.5
	c0,0.2,0,0.3,0.1,0.5l1,0.8c0.3,0.2,0.7,0.5,1.1,0.3l0.3-0.1c0.4-0.2,0.5,0.1,0.3,0.3L120.2,51.7z M137.8,37.8l-7.5,4.7V46
	c0,0.3,0,0.5,0.3,0.6l2.4,1.3c0.4,0.2,1.1,0.4,1.6,0.2l2.2-1.3c0.4-0.2,0.7-0.1,0.5,0.1l-6.1,4.9c-0.1,0.1-0.1,0.1-0.3,0l-5.4-2.9
	c-0.4-0.2-0.5-0.3-0.5-0.9V34.7c0-0.2,0.1-0.3,0.3-0.4l8.9-2.9c0.1,0,0.3-0.1,0.3,0.1l3.3,5.9C138,37.6,138,37.7,137.8,37.8z
	 M130.4,33.7L130.4,33.7l-0.1,8.2l2.9-2.4c0.2-0.1,0.2-0.2,0.1-0.3L130.4,33.7z M153.2,54.6l-4.6,3.7c-0.1,0.1-0.2,0.1-0.3,0
	c-2.4-1.6-4.4-2.4-6.5-2.4c-1.5,0-3,0.3-4.8,0.8c-0.2,0-0.2-0.1-0.1-0.2c2-3,4.4-3.9,6.7-3.9c3.4,0,6.5,2.1,7.8,2.9l0.1-0.1
	c0.3-0.8,0.5-1.5,0.5-2.1c0-2.1-1.8-3.9-4-5l-4.5,3.4c-0.2,0.1-0.3,0.1-0.4,0l-2.9-2.6c-0.4-0.4-0.5-0.5-0.5-1V35.9
	c0-0.2,0.2-0.3,0.3-0.3l9.7-4c0.3-0.1,0.4-0.1,0.5,0l2.7,2.7c0.3,0.3,0.5,0.6,0.5,0.9v11.2c1.8,1.3,2.5,2.6,2.5,3.9
	C155.7,51.7,155,53.1,153.2,54.6z M147.9,36c0-0.2,0-0.3-0.2-0.5l-1.6-1.6c-0.1-0.1-0.1,0-0.3,0l-1,0.5v12.1c0,0.7,0.2,0.8,0.8,1.4
	c0.4,0.3,0.6,0.5,1,0.5c0.3,0,0.9-0.3,1.2-0.5V36z M166.9,36.9c-0.2,0.2-0.4,0.3-0.6,0.3s-0.4-0.1-0.6-0.3l-2.6-2.2l-0.3,0.2v11.7
	c0,0.3,0,0.3,0.2,0.4l0.7,0.6c0.7,0.6,0.9,0.7,1.6,0.4l0.5-0.2c0.3-0.1,0.4,0,0.2,0.3l-4.3,3.7c-0.2,0.2-0.2,0.1-0.3,0l-3.3-3
	c-0.4-0.3-0.5-0.5-0.5-0.9v-12l-1-1.1c-0.1-0.1-0.1-0.1-0.3,0l-1.3,0.7c-0.4,0.2-0.5-0.1-0.3-0.3l4.3-3.7c0.2-0.1,0.3-0.1,0.3,0
	l2.9,2.9l2.9-2.9c0.2-0.1,0.3-0.2,0.5,0l2.2,2.1c0.4,0.4,0.7,0.6,0.9,0.6c0.2,0,0.4-0.1,0.6-0.3l0.6-0.4c0.4-0.3,0.5,0.1,0.3,0.3
	L166.9,36.9z M182.4,51.7c-0.2,0.2-0.2,0.1-0.3,0l-3.8-3.4l-4.6,3.4c-0.2,0.1-0.2,0.1-0.4,0l-2.9-2.6c-0.5-0.4-0.5-0.5-0.5-1V35.9
	c0-0.2,0.2-0.3,0.3-0.3l9.8-4c0.2-0.1,0.3-0.1,0.5,0.1l2.6,2.6c0.4,0.4,0.5,0.6,0.5,0.8v11.9l0.8,0.7c0.9,0.8,1.1,0.8,1.5,0.5
	l0.6-0.3c0.4-0.2,0.7,0,0.3,0.3L182.4,51.7z M178.3,36.1c0-0.3,0-0.4-0.3-0.6l-1.5-1.5c-0.1-0.1-0.1,0-0.2,0l-1.1,0.5v12.2
	c0,0.4,0.1,0.6,0.4,0.9l0.5,0.5c0.4,0.3,0.8,0.5,1.4,0.3l0.7-0.3V36.1z M202.3,48.7l-3.8,2.9c-0.4,0.3-0.5,0.3-1,0l-4-2.4v4.9l1.1,1
	c0.1,0.1,0.1,0.2,0,0.3l-3.3,3.1c-0.1,0-0.2,0.1-0.3,0l-3.7-3c-0.1-0.1-0.1-0.2,0-0.3l0.9-1.1V35.9l-0.9-1.1c0,0-0.1,0-0.2,0
	l-1.3,0.6c-0.3,0.2-0.5,0-0.3-0.3l4.3-3.6c0.1-0.1,0.3-0.1,0.4,0l3.1,3.1l5.6-3c0.2-0.1,0.3,0,0.3,0l2.8,2.6
	c0.2,0.2,0.5,0.5,0.5,0.9V48C202.6,48.3,202.6,48.4,202.3,48.7z M197.3,36.2c0-0.3-0.1-0.5-0.3-0.6l-1.2-1.1c-0.1-0.1-0.2-0.1-0.3,0
	l-2.1,0.8v13.4l1.2,0.4c1,0.3,1.4,0.3,1.8-0.1l0.4-0.4c0.4-0.3,0.4-0.7,0.4-1.4V36.2z M218.9,51.7c-0.2,0.2-0.2,0.1-0.3,0l-3.4-3
	c-0.3-0.3-0.5-0.5-0.5-1.1V36.1c0-0.1,0-0.3-0.2-0.4l-1.1-1c-0.1-0.1-0.3-0.1-0.5,0l-2.1,1v10.9c0,0.2,0,0.3,0.1,0.5l1,0.8
	c0.3,0.2,0.7,0.5,1.1,0.3l0.3-0.1c0.4-0.2,0.5,0.1,0.3,0.3l-3.9,3.3c-0.2,0.2-0.2,0.1-0.3,0l-3.4-3c-0.4-0.3-0.4-0.4-0.4-1V29.1
	c0-0.2,0-0.3-0.2-0.4l-0.4-0.4c-0.4-0.4-0.6-0.3-1.1,0l-0.8,0.4c-0.1,0-0.3-0.1,0-0.3l4.5-3.7c0.2-0.2,0.2-0.1,0.3,0l2.7,2.5
	c0.3,0.3,0.5,0.5,0.5,1.1v7l5.6-3.5c0.2-0.1,0.3-0.1,0.5,0l2.7,2.5c0.4,0.3,0.5,0.6,0.5,1v11.5c0,0.2,0,0.3,0.2,0.4l1.1,0.9
	c0.4,0.4,0.6,0.3,1.1,0l0.8-0.4c0.1,0,0.3,0.1,0,0.3L218.9,51.7z"/>
</svg>
