<?xml version="1.0" encoding="utf-8"?>
<!-- Generator: Adobe Illustrator 21.0.2, SVG Export Plug-In . SVG Version: 6.00 Build 0)  -->
<svg version="1.1" id="Layer_1" xmlns="http://www.w3.org/2000/svg" xmlns:xlink="http://www.w3.org/1999/xlink" x="0px" y="0px"
	 viewBox="0 0 230 80" style="enable-background:new 0 0 230 80;" xml:space="preserve">
<style type="text/css">
	.st0{fill:#6E747E;}
</style>
<g>
	<path class="st0" d="M127.3,18.7c0.7-1,1.5-1.5,2.5-1.5c1,0,1.7,0.3,2.3,0.9c0.5,0.6,0.8,1.2,0.8,2c0,0.7-0.2,1.4-0.5,2L116.5,44
		v16.8c0,0.8-0.3,1.5-0.9,2.1c-0.6,0.6-1.3,0.9-2.1,0.9c-0.8,0-1.5-0.3-2.1-0.9c-0.6-0.6-0.9-1.3-0.9-2.1V44L94.7,21.9
		c-0.4-0.6-0.5-1.2-0.5-2c0-0.7,0.3-1.4,0.8-2c0.5-0.6,1.3-0.9,2.3-0.9c1,0,1.8,0.5,2.5,1.5l13.8,20L127.3,18.7z"/>
</g>
<g>
	<path class="st0" d="M136.9,56.2c1.9,1.8,4.6,2.7,8,2.7c3.4,0,6.3-0.6,8.6-1.7c0.8-0.4,1.5-0.6,2.1-0.6c0.6,0,1.1,0.2,1.7,0.7
		c0.5,0.5,0.8,1,0.8,1.7c0,1.2-0.5,2-1.4,2.5c-1,0.5-1.8,0.9-2.6,1.3c-0.8,0.4-1.6,0.7-2.5,0.9c-2,0.6-4.3,0.9-6.9,0.9
		c-5.5,0-9.7-1.5-12.7-4.6c-3-3.1-4.5-7.4-4.5-13.1c0-4.9,1.3-9,3.8-12.2c2.9-3.6,6.9-5.5,12.1-5.5c5,0,8.9,1.7,11.8,5.1
		c2.7,3.2,4.1,7.1,4.1,11.8c0,0.8-0.3,1.6-0.8,2.1c-0.6,0.6-1.3,0.9-2.2,0.9h-22.6C133.8,52,135,54.4,136.9,56.2 M143.3,34.3
		c-4,0-6.9,1.8-8.7,5.3c-0.7,1.2-1,2.7-1.1,4.5h19.7c-0.2-3.2-1.3-5.6-3.5-7.5C147.9,35,145.8,34.3,143.3,34.3"/>
</g>
<g>
	<path class="st0" d="M165.4,15.9c0.6-0.6,1.3-0.9,2.1-0.9c0.9,0,1.6,0.3,2.1,0.9c0.6,0.6,0.9,1.3,0.9,2.2v42.8
		c0,0.8-0.3,1.5-0.9,2.1c-0.6,0.6-1.3,0.9-2.1,0.9c-0.9,0-1.6-0.3-2.1-0.9c-0.6-0.6-0.9-1.3-0.9-2.1V18.1
		C164.5,17.2,164.8,16.5,165.4,15.9"/>
</g>
<g>
	<path class="st0" d="M178.4,15.9c0.6-0.6,1.3-0.9,2.1-0.9c0.9,0,1.6,0.3,2.1,0.9c0.6,0.6,0.9,1.3,0.9,2.2v42.8
		c0,0.8-0.3,1.5-0.9,2.1c-0.6,0.6-1.3,0.9-2.1,0.9c-0.9,0-1.6-0.3-2.1-0.9c-0.6-0.6-0.9-1.3-0.9-2.1V18.1
		C177.5,17.2,177.8,16.5,178.4,15.9"/>
</g>
<path class="st0" d="M79.2,11H56.1c1.1,3.1,2.4,6.4,3.7,9.1c2.4,5.2,13.4,27.9,15.6,32.7c0.1,0.2,0.1,0.4-0.3,0.4
	c-3.2,0.1-5.6-1.1-7.4-3.9c-3.5-5.5-6.7-10.9-9.6-15.6c-1.5-2.5-2.7-4.4-3.8-5.9c-1.2-1.4-2.3-2.2-4-2.4c-1.2-0.2-2.4,0.2-3.3,0.9
	c-2,1.6-4.5,4-6.1,5.3c-4.4,3.4-8.5,0.5-7.5-0.5c2.9-3.1,7.2-7.1,8.5-11c0.7-2.2,0.7-4.5,0.5-9.1H31.8c-2.9,0-5.3,2.4-5.3,5.3v47.5
	c0,2.9,2.4,5.3,5.3,5.3h47.5c2.9,0,5.3-2.4,5.3-5.3V16.3C84.5,13.4,82.1,11,79.2,11z M37.6,47.9c1.2-1.9,8.7-13.3,11.3-17.4
	c0.4-0.6,0.6-0.8,1-0.8c0,0,0.1,0,0.1,0c0.5,0,1.2,0.2,2,0.7c1.1,0.7,2.5,2.3,2.9,3c0.2,0.3,0.2,0.5-0.1,0.8
	c-2,2.7-12.9,17.3-14.8,19.7c-0.2,0.3-0.6,0.4-1,0.4c-1.4-0.3-2.3-1.1-2.6-2.3C36.2,50.7,36.6,49.4,37.6,47.9z M78.5,59.1
	c0,2.6-2.4,4.9-5.2,4.9H36.5c-2.8,0-5-2.2-5-5v0h47L78.5,59.1z"/>
<g>
	<path class="st0" d="M195.2,59.1c0.1,0.1,0.1,0.1,0.1,0.2c0,0.1,0,0.2-0.1,0.2c-0.1,0.1-0.1,0.1-0.2,0.4h-1.5v3.9
		c0,0.1-0.1,0.2-0.1,0.2c-0.1,0.1-0.1,0.1-0.2,0.1c-0.1,0-0.2,0-0.2-0.1c-0.1-0.1-0.1-0.1-0.4-0.2V60h-1.2c-0.1-0.4-0.2-0.4-0.2-0.4
		c-0.1-0.1-0.1-0.1-0.1-0.2c0-0.1,0-0.2,0.1-0.2c0.1-0.1,0.1-0.1,0.2-0.1h3.7C195.1,59,195.1,59,195.2,59.1"/>
</g>
<g>
	<path class="st0" d="M200.4,59.1c0.1,0.1,0.1,0.2,0.1,0.3v4.4c0,0,1.3,0.2,1.2,0.2c-0.1,0.1-0.1,0.1-0.2,0.1c-0.1,0-0.2,0-0.2-0.1
		c-0.1-0.1,0.2-0.2,0.2-0.2v-4.2l-2.1,4.2c0,0.1-0.1,0.2-0.2,0.2c-0.1,0.1-0.2,0.1-0.3,0.1c-0.1,0-0.2,0-0.3-0.1
		c-0.1-0.1-0.1-0.1-0.2-0.2l-3-4.2v4.2c0,0,1.2,0.2,1.2,0.2c-0.1,0.1-0.1,0.1-0.2,0.1c-0.1,0-0.2,0-0.2-0.1
		c-0.1-0.1-0.1-0.1,0.3-0.2v-4.4c-0.4-0.1-0.3-0.2-0.3-0.3c0.1-0.1,0.2-0.1,0.3-0.1h0.2c0.1,0,0.2,0,0.3,0.1
		c0.1,0.1,0.1,0.1,0.2,0.2l1.7,4.2l1.7-4.2c0-0.1,0.1-0.2,0.2-0.2c0.1-0.1,0.3-0.1,0.3-0.1h0.2c0.1,0,0.2,0,0.3,0.1"/>
</g>
</svg>
